<svg xmlns="http://www.w3.org/2000/svg" version="1.0" width="1212.000000pt" height="1212.000000pt" viewBox="0 0 1212.000000 1212.000000" preserveAspectRatio="xMidYMid meet">
<g transform="translate(0.000000,1212.000000) scale(0.100000,-0.100000)" fill="#000000" stroke="none">
  <path d="M0 6060 l0 -6060 6060 0 6060 0 0 6060 0 6060 -6060 0 -6060 0 0 -6060z m6494 4664 c3 -9 6 -584 6 -1278 0 -968 -3 -1265 -12 -1274 -17 -17 -839 -17 -856 0 -9 9 -12 306 -12 1274 0 694 3 1269 6 1278 5 14 53 16 434 16 381 0 429 -2 434 -16z m-2082 -2427 c241 -240 438 -442 438 -447 0 -13 -587 -600 -600 -600 -5 0 -212 203 -460 450 l-450 450 303 304 c244 245 305 301 317 292 8 -6 211 -208 452 -449z m4355 -156 c-33 -41 -889 -891 -897 -891 -13 0 -600 587 -600 600 0 5 203 213 451 461 l451 451 304 -303 c255 -255 301 -305 291 -318z m-2480 -832 c340 -79 541 -198 768 -454 121 -137 218 -344 274 -588 14 -61 14 -393 0 -454 -70 -304 -192 -528 -384 -705 -79 -72 -101 -90 -170 -137 -136 -92 -285 -153 -488 -200 -61 -14 -393 -14 -454 0 -302 70 -481 166 -679 363 -197 198 -293 377 -363 679 -14 61 -14 393 0 454 79 340 198 541 454 768 135 119 339 215 580 273 57 13 405 14 462 1z m-2359 -841 c17 -17 17 -839 0 -856 -9 -9 -306 -12 -1274 -12 -694 0 -1269 3 -1278 6 -14 5 -16 53 -16 434 0 333 3 429 13 433 6 3 581 6 1278 6 971 1 1268 -2 1277 -11z m6816 6 c14 -5 16 -53 16 -434 0 -381 -2 -429 -16 -434 -9 -3 -584 -6 -1278 -6 -968 0 -1265 3 -1274 12 -17 17 -17 839 0 856 9 9 306 12 1274 12 694 0 1269 -3 1278 -6z m-6189 -1939 c162 -162 295 -299 295 -305 0 -5 -203 -213 -450 -460 l-451 -451 -147 148 c-81 82 -218 219 -305 305 l-158 157 451 451 c247 247 455 450 460 450 6 0 143 -133 305 -295z m3776 -156 l451 -452 -303 -303 c-255 -255 -305 -301 -318 -291 -39 31 -891 889 -891 897 0 14 583 598 598 599 6 1 215 -202 463 -450z m-1843 -471 c9 -9 12 -306 12 -1274 0 -694 -3 -1269 -6 -1278 -5 -14 -53 -16 -434 -16 -381 0 -429 2 -434 16 -3 9 -6 584 -6 1278 0 968 3 1265 12 1274 17 17 839 17 856 0z"/>
</g>
</svg>
